<svg xmlns="http://www.w3.org/2000/svg" viewBox="0 0 512 512"><path style="-inkscape-font-specification:'Trebuchet MS, Bold';font-variant-ligatures:normal;font-variant-caps:normal;font-variant-numeric:normal;font-variant-east-asian:normal;text-align:center" d="M245.164 253.89q0-31.168 15.2-52.675 15.306-21.507 40.815-21.507 53.203 0 53.203 77.508 0 36.26-14.368 57.87-14.368 21.611-40.293 21.611-27.903 0-41.23-19.948-13.327-19.948-13.327-62.858zm28.111 1.871q0 30.442 5.935 44.78 5.935 14.338 19.678 14.338 14.889 0 21.136-12.884 6.247-12.987 6.247-46.13 0-30.858-6.04-42.598-5.934-11.74-19.573-11.74-27.383 0-27.383 54.234zm-85.074 78.858V224.904L157.174 243.5v-25.974q29.882-14.442 47.27-35.74h10.827v152.832zM57.228 415.424C8.92 353.82-8.045 275.55 9.9 197.062c8.287-36.244 26.547-73.244 50.85-103.035 10.656-13.062 31.576-32.783 44.805-42.239C163.005 10.727 235.542-4.84 305.079 8.97c27.663 5.494 65.979 20.336 86.343 33.446 4.112 2.647 6.182 3.348 7.112 2.408.721-.73 8.015-10.663 16.21-22.075 8.194-11.411 15.945-21.38 17.224-22.152 1.476-.891 2.952-.779 4.038.307 1.867 1.867 49.102 138.46 49.454 143.01.569 7.336.153 7.374-80.218 7.367-41.72-.003-76.459-.612-77.199-1.353-.74-.74-1.256-2.189-1.147-3.22.11-1.03 7.218-11.641 15.796-23.58 8.58-11.938 16.046-22.504 16.593-23.479.897-1.6-.133-2.423-10.591-8.461-28.017-16.176-54.835-23.105-90.28-23.324-39.763-.245-75.925 10.884-110.299 33.946-12.511 8.394-38.807 34.676-47.264 47.24-30.46 45.25-40.957 97.537-30.063 149.754 5.774 27.68 21.196 59.797 38.726 80.649l2.271 2.702-22.369 22.81c-17.651 18-22.572 22.57-23.33 21.672-.527-.627-4.513-5.672-8.858-11.212zm54.13 11.093l22.581-22.58 6.645 5.54c3.655 3.048 11.235 8.338 16.845 11.756 5.61 3.418 10.16 6.683 10.11 7.256-.288 3.374-23.636 56.791-24.823 56.791-3.91 0-35.029-20.438-49.641-32.604l-4.298-3.577zm66.982 70.823c.654-1.472 5.971-14.254 11.815-28.405 5.844-14.151 10.867-25.97 11.162-26.265.295-.295 7.483.87 15.973 2.588 8.49 1.719 16.294 3.24 17.34 3.38 1.422.192 1.915 8.22 1.951 31.796l.05 31.539-6.706-.424c-11.282-.712-41.151-7.158-51.878-11.196-.493-.186-.36-1.542.293-3.013zm100.487-17.047c.013-24.034.478-31.474 1.983-31.719 1.081-.175 7.565-1.434 14.407-2.797l12.441-2.478 11.656 28.12c6.411 15.466 11.657 28.788 11.657 29.603 0 2.062-16.315 6.314-34.583 9.014-8.317 1.23-15.675 2.105-16.35 1.945-.675-.16-1.22-14.419-1.21-31.688zm86.313-26.372c-6.36-15.437-11.566-28.423-11.566-28.857 0-.434 4.026-3.506 8.946-6.825l8.945-6.036 22.674 22.674 22.674 22.674-2.66 1.9c-19.756 14.107-35.936 24.224-36.945 23.098-.276-.308-5.706-13.19-12.068-28.628zm47.511-83.845c.781-1.27 2.868-4.22 4.637-6.555l3.216-4.245 29 12.103c23.553 9.83 28.903 12.453 28.476 13.966-.52 1.842-13.614 21.93-18.772 28.8l-2.667 3.551-22.655-22.655-22.655-22.655zm31.624-66.06c.736-2.43 3.714-2.674 32.807-2.689l31.998-.016-2.832 15.725c-1.557 8.65-3.008 15.923-3.222 16.164-.215.242-9.985-3.934-21.713-9.278a73149.974 73149.974 0 00-29.585-13.475l-8.262-3.759z" font-family="Trebuchet MS" font-size="138.837" font-weight="700" text-anchor="middle"/></svg>