<?xml version="1.0" encoding="UTF-8" standalone="no"?>
<!DOCTYPE svg PUBLIC "-//W3C//DTD SVG 1.1//EN" "http://www.w3.org/Graphics/SVG/1.1/DTD/svg11.dtd">
<svg width="100%" height="100%" viewBox="0 0 416 401" version="1.1" xmlns="http://www.w3.org/2000/svg" xmlns:xlink="http://www.w3.org/1999/xlink" xml:space="preserve" xmlns:serif="http://www.serif.com/" style="fill-rule:evenodd;clip-rule:evenodd;stroke-linejoin:round;stroke-miterlimit:2;">
    <path id="airplay-alt" d="M272,400.076L144,400.076C132.249,400.027 122.608,390.345 122.608,378.594C122.608,373.93 124.127,369.391 126.933,365.666L190.933,280.61C194.959,275.242 201.29,272.076 208,272.076C214.71,272.076 221.041,275.242 225.067,280.61L289.067,365.666C291.873,369.391 293.392,373.93 293.392,378.594C293.392,390.345 283.751,400.027 272,400.076ZM285.995,226.828C287.376,220.672 288.092,214.385 288.128,208.076C288.128,164.19 252.015,128.076 208.128,128.076C164.241,128.076 128.128,164.19 128.128,208.076C128.165,214.385 128.88,220.672 130.261,226.828C131.923,234.072 138.424,239.251 145.856,239.251C154.634,239.251 161.856,232.028 161.856,223.251C161.856,222.181 161.749,221.114 161.536,220.066C160.6,216.135 160.085,212.116 160,208.076C160,181.744 181.668,160.076 208,160.076C234.332,160.076 256,181.744 256,208.076C255.978,212.109 255.528,216.128 254.656,220.066C252.808,228.637 258.333,237.213 266.901,239.074C268.022,239.321 269.167,239.442 270.315,239.436C277.809,239.427 284.342,234.153 285.931,226.828L285.995,226.828ZM326.528,290.124C343.087,266.096 351.957,237.593 351.957,208.411C351.957,129.415 286.953,64.411 207.957,64.411C128.961,64.411 63.957,129.415 63.957,208.411C63.957,237.593 72.828,266.096 89.387,290.124C92.372,294.451 97.304,297.04 102.56,297.04C111.34,297.04 118.564,289.816 118.564,281.036C118.564,277.79 117.577,274.62 115.733,271.948C102.856,253.26 95.957,231.093 95.957,208.397C95.957,146.956 146.516,96.397 207.957,96.397C269.399,96.397 319.957,146.956 319.957,208.397C319.957,231.093 313.059,253.26 300.181,271.948C298.338,274.62 297.351,277.79 297.351,281.036C297.351,289.816 304.575,297.04 313.355,297.04C318.611,297.04 323.543,294.451 326.528,290.124ZM365.077,344.034C397.803,306.249 415.829,257.901 415.829,207.915C415.829,93.856 321.973,0 207.915,0C93.856,-0 0,93.856 0,207.915C0,207.969 0,208.022 0,208.076C-0.039,258.044 18.046,306.369 50.88,344.034C53.918,347.518 58.321,349.521 62.944,349.521C71.724,349.521 78.949,342.296 78.949,333.516C78.949,329.651 77.548,325.913 75.008,322.999C47.41,291.056 32.213,250.221 32.213,208.007C32.213,111.515 111.615,32.113 208.107,32.113C304.599,32.113 384,111.515 384,208.007C384,208.03 384,208.053 384,208.076C384.036,250.314 368.748,291.162 340.992,322.999C338.452,325.913 337.051,329.651 337.051,333.516C337.051,342.296 344.276,349.521 353.056,349.521C357.679,349.521 362.082,347.518 365.12,344.034L365.077,344.034Z" style="fill-rule:nonzero;"/>
</svg>
