<svg xmlns="http://www.w3.org/2000/svg" xml:space="preserve" style="fill-rule:evenodd;clip-rule:evenodd;stroke-linejoin:round;stroke-miterlimit:2" viewBox="0 0 24 24"><path d="M11.629 11.901c0-.974.237-1.797.712-2.469.479-.672 1.116-1.008 1.914-1.008 1.662 0 2.494 1.211 2.494 3.633 0 1.133-.225 2.037-.674 2.713-.449.675-1.079 1.013-1.889 1.013-.872 0-1.516-.312-1.932-.935-.417-.624-.625-1.606-.625-2.947Zm1.318.088c0 .951.092 1.651.278 2.099.185.448.493.672.922.672.466 0 .796-.201.991-.604.195-.406.293-1.127.293-2.162 0-.965-.095-1.63-.283-1.997-.186-.367-.492-.55-.918-.55-.855 0-1.283.847-1.283 2.542Zm-3.988 3.696v-5.143l-1.455.872v-1.217c.934-.452 1.673-1.01 2.216-1.676h.508v7.164H8.959Zm12.495 3.788c2.265-2.888 3.06-6.557 2.219-10.236-.389-1.699-1.245-3.433-2.384-4.829-.499-.613-1.48-1.537-2.1-1.98A12.076 12.076 0 0 0 9.836.42c-1.296.258-3.093.954-4.047 1.568-.193.124-.29.157-.333.113-.034-.034-.376-.5-.76-1.035C4.312.531 3.948.064 3.888.028c-.069-.042-.138-.037-.189.014-.087.088-2.302 6.491-2.318 6.704-.027.344-.007.346 3.76.345 1.956 0 3.584-.028 3.619-.063a.212.212 0 0 0 .054-.151c-.006-.048-.339-.546-.741-1.105a50.716 50.716 0 0 1-.778-1.101c-.042-.075.007-.114.497-.397 1.313-.758 2.57-1.083 4.232-1.093 1.864-.011 3.559.51 5.17 1.591.586.394 1.819 1.626 2.215 2.215 1.428 2.121 1.92 4.572 1.41 7.019-.271 1.298-.994 2.803-1.816 3.781l-.106.127 1.049 1.069c.827.843 1.058 1.058 1.093 1.016.025-.03.212-.266.415-.526Zm-2.537.52-1.059-1.058-.311.259a7.965 7.965 0 0 1-.79.551c-.263.161-.476.314-.474.34.014.159 1.108 2.663 1.164 2.663.183 0 1.642-.958 2.327-1.529l.201-.167-1.058-1.059Zm-3.14 3.32c-.031-.069-.28-.668-.554-1.332a34.858 34.858 0 0 0-.523-1.231c-.014-.014-.351.041-.749.122-.398.08-.763.151-.812.158-.067.009-.09.385-.092 1.49l-.002 1.479.314-.02c.529-.033 1.929-.336 2.432-.525.023-.009.017-.072-.014-.141Zm-4.71-.799c-.001-1.127-.023-1.476-.093-1.487a38.513 38.513 0 0 1-.675-.131l-.584-.116-.546 1.318c-.301.725-.546 1.349-.546 1.387 0 .097.764.296 1.621.423.39.058.734.099.766.091.032-.007.057-.676.057-1.485Zm-4.046-1.236c.298-.724.542-1.333.542-1.353 0-.02-.189-.164-.419-.32l-.42-.283-1.062 1.063-1.063 1.063.124.089c.926.661 1.685 1.135 1.732 1.082.013-.014.268-.618.566-1.341Zm-2.227-3.931a5.816 5.816 0 0 0-.218-.307l-.15-.199-1.36.567c-1.104.461-1.354.584-1.334.655.024.086.638 1.028.879 1.35l.125.167 1.062-1.062 1.062-1.062-.066-.109Zm-1.483-3.096c-.034-.114-.174-.126-1.537-.126l-1.5-.001.132.737a11 11 0 0 0 .151.758c.011.011.469-.185 1.018-.435l1.387-.632.387-.176-.038-.125Z" style="fill:currentColor;fill-rule:nonzero"/></svg>