<svg xmlns="http://www.w3.org/2000/svg" xml:space="preserve" style="fill-rule:evenodd;clip-rule:evenodd;stroke-linejoin:round;stroke-miterlimit:2" viewBox="0 0 24 24"><path d="M11.355 11.901c0-.974.238-1.797.713-2.469.478-.672 1.116-1.008 1.913-1.008 1.663 0 2.494 1.211 2.494 3.633 0 1.133-.225 2.037-.674 2.713-.449.675-1.078 1.013-1.888 1.013-.872 0-1.517-.312-1.933-.935-.417-.624-.625-1.606-.625-2.947Zm1.318.088c0 .951.093 1.651.278 2.099.186.448.493.672.923.672.465 0 .795-.201.99-.604.196-.406.293-1.127.293-2.162 0-.965-.094-1.63-.283-1.997-.185-.367-.491-.55-.917-.55-.856 0-1.284.847-1.284 2.542Zm-3.988 3.696v-5.143l-1.454.872v-1.217c.933-.452 1.672-1.01 2.215-1.676h.508v7.164H8.685Zm-6.139 3.788C.281 16.585-.514 12.916.327 9.237c.389-1.699 1.245-3.433 2.384-4.83.499-.612 1.48-1.536 2.1-1.979A12.076 12.076 0 0 1 14.164.42c1.296.258 3.093.954 4.047 1.568.193.124.29.157.333.113.034-.034.376-.5.76-1.035.384-.535.748-1.002.808-1.038.069-.042.138-.037.189.014.088.088 2.302 6.491 2.318 6.704.027.344.007.346-3.76.345-1.956 0-3.584-.028-3.619-.063a.216.216 0 0 1-.054-.151c.006-.048.339-.546.741-1.105.402-.56.752-1.055.778-1.101.042-.075-.007-.114-.497-.397-1.313-.758-2.57-1.083-4.232-1.093-1.864-.011-3.559.51-5.17 1.591-.586.394-1.819 1.626-2.215 2.215-1.428 2.121-1.92 4.572-1.41 7.019.271 1.298.994 2.803 1.816 3.781l.106.127-1.048 1.069c-.828.844-1.059 1.058-1.094 1.016-.025-.03-.212-.266-.415-.526Zm2.537.52 1.059-1.058.311.259c.171.143.527.391.79.551.263.161.476.314.474.34-.014.159-1.108 2.663-1.164 2.663-.183 0-1.642-.958-2.327-1.529l-.201-.167 1.058-1.059Zm3.14 3.32c.03-.069.28-.668.554-1.332.274-.663.509-1.217.523-1.231.014-.014.351.041.749.122.398.08.763.151.812.158.067.009.09.385.092 1.49l.002 1.479-.314-.02c-.529-.033-1.929-.336-2.432-.525-.023-.009-.017-.072.014-.141Zm4.71-.799c.001-1.127.023-1.476.093-1.487.051-.008.355-.067.675-.131l.584-.116.546 1.318c.301.725.546 1.349.546 1.387 0 .097-.764.296-1.621.423-.389.058-.734.099-.766.091-.032-.007-.057-.676-.057-1.485Zm4.046-1.236a40.347 40.347 0 0 1-.542-1.353c0-.02.189-.164.419-.32l.42-.283 1.062 1.063 1.063 1.063-.124.089c-.926.661-1.685 1.135-1.732 1.082a45.46 45.46 0 0 1-.566-1.341Zm2.227-3.931c.037-.059.135-.197.218-.307l.15-.199 1.36.567c1.104.461 1.355.584 1.335.655-.025.086-.639 1.028-.88 1.35l-.125.167-1.062-1.063-1.062-1.061.066-.109Zm1.483-3.096c.034-.114.174-.126 1.537-.126l1.5-.001-.132.737a11.15 11.15 0 0 1-.151.758c-.011.011-.468-.185-1.018-.435l-1.387-.632-.387-.176.038-.125Z" style="fill:currentColor;fill-rule:nonzero"/></svg>