<svg xmlns="http://www.w3.org/2000/svg" xml:space="preserve" style="fill-rule:evenodd;clip-rule:evenodd;stroke-linejoin:round;stroke-miterlimit:2" viewBox="0 0 477 476"><path d="M292.304 205.408v.008c-12.136 0-22-9.864-22-22V65.72a30.137 30.137 0 0 1 9.352-21.768c6.032-5.712 13.968-8.688 22.248-8.184 15.92.832 28.4 14.584 28.4 31.312v35.912L424.8 8.496c11.328-11.328 31.096-11.328 42.424 0 5.664 5.664 8.792 13.192 8.792 21.208 0 8.016-3.128 15.544-8.792 21.208l-94.496 94.504h35.912c16.728 0 30.48 12.472 31.312 28.392.44 8.32-2.464 16.224-8.184 22.248-5.64 5.944-13.584 9.352-21.768 9.352H292.304ZM196.36 43.952c5.936 5.632 9.352 13.576 9.352 21.76v117.696c0 12.136-9.864 22-22 22H66.024a30.137 30.137 0 0 1-21.768-9.352c-5.72-6.024-8.632-13.928-8.192-22.248.832-15.92 14.592-28.4 31.312-28.4h35.912L8.792 50.912C3.12 45.248 0 37.72 0 29.704 0 21.688 3.128 14.16 8.792 8.496c11.328-11.328 31.096-11.328 42.424 0l94.504 94.488V67.072c0-16.728 12.472-30.48 28.392-31.312 8.288-.448 16.224 2.472 22.248 8.192ZM183.712 270v-.008c12.136 0 22 9.864 22 22v117.696c0 8.192-3.408 16.128-9.352 21.76-6.032 5.704-13.92 8.64-22.256 8.192-15.92-.832-28.392-14.584-28.392-31.312v-35.912l-94.496 94.496c-5.664 5.664-13.2 8.792-21.208 8.792s-15.544-3.128-21.208-8.792C3.128 461.248.008 453.72.008 445.704c0-8.016 3.128-15.544 8.792-21.208l94.48-94.504H67.368c-16.72 0-30.48-12.472-31.312-28.392-.44-8.32 2.472-16.224 8.192-22.248A30.137 30.137 0 0 1 66.016 270h117.696Zm189.016 60-.008.008 94.496 94.496c5.664 5.664 8.792 13.192 8.792 21.208 0 8.016-3.128 15.544-8.792 21.208-5.664 5.664-13.192 8.792-21.208 8.792-8.016 0-15.544-3.128-21.208-8.792l-94.504-94.496v35.912c0 16.728-12.472 30.48-28.392 31.312-8.232.488-16.216-2.464-22.248-8.184-5.944-5.64-9.352-13.584-9.352-21.768V292c0-12.136 9.864-22 22-22H410a30.137 30.137 0 0 1 21.768 9.352c5.712 6.024 8.624 13.928 8.184 22.248-.832 15.92-14.584 28.4-31.312 28.4h-35.912Z" style="fill:currentColor;fill-rule:nonzero"/></svg>