<svg xmlns="http://www.w3.org/2000/svg" xml:space="preserve" style="fill-rule:evenodd;clip-rule:evenodd;stroke-linejoin:round;stroke-miterlimit:2" viewBox="0 0 476 476"><path d="M453.992 0H454c12.132.004 21.992 9.875 21.992 22v117.696a30.12 30.12 0 0 1-9.352 21.76c-6.032 5.72-13.872 8.608-22.248 8.2-15.92-.84-28.4-14.592-28.4-31.32v-35.912l-94.496 94.496c-5.848 5.848-13.536 8.768-21.216 8.768-7.68 0-15.36-2.92-21.208-8.768-11.688-11.696-11.688-30.728 0-42.424L373.576 60h-35.912c-16.728 0-30.48-12.472-31.312-28.4-.44-8.32 2.464-16.224 8.184-22.248C320.176 3.416 328.12 0 336.304 0h117.688ZM102.424 60l94.496 94.504c11.688 11.696 11.688 30.728 0 42.424-5.848 5.848-13.536 8.768-21.216 8.768-7.68 0-15.36-2.92-21.208-8.768L60 102.432v35.912c0 16.728-12.48 30.488-28.4 31.32-8.296.4-16.224-2.48-22.248-8.2C3.408 155.824 0 147.888 0 139.704V22.008c0-12.136 9.864-22 22-22h117.696a30.137 30.137 0 0 1 21.768 9.352c5.712 6.024 8.624 13.928 8.184 22.248C168.816 47.528 155.064 60 138.336 60h-35.912Zm52.072 219.08c11.696-11.688 30.72-11.696 42.432 0 11.688 11.696 11.688 30.728 0 42.424L102.424 416h35.912c16.728 0 30.48 12.472 31.312 28.4.44 8.32-2.464 16.224-8.184 22.248-5.64 5.936-13.584 9.352-21.768 9.352H22c-12.136 0-22-9.872-22-22V336.304a30.12 30.12 0 0 1 9.352-21.76c6.024-5.72 13.832-8.656 22.248-8.2 15.92.84 28.4 14.592 28.4 31.32v35.912l94.496-94.496ZM444.4 306.344v-.008c8.248-.456 16.216 2.48 22.248 8.2 5.944 5.64 9.352 13.576 9.352 21.76v117.696c0 12.136-9.864 22-22 22H336.304a30.137 30.137 0 0 1-21.768-9.352c-5.712-6.024-8.624-13.928-8.184-22.248.832-15.92 14.584-28.392 31.312-28.392h35.912l-94.504-94.496c-11.688-11.696-11.688-30.728 0-42.424 11.696-11.688 30.72-11.696 42.432 0L416 373.576v-35.912c0-16.728 12.48-30.488 28.4-31.32Z" style="fill:currentColor;fill-rule:nonzero"/></svg>