<?xml version="1.0" encoding="UTF-8" standalone="no"?>
<!DOCTYPE svg PUBLIC "-//W3C//DTD SVG 1.1//EN" "http://www.w3.org/Graphics/SVG/1.1/DTD/svg11.dtd">
<svg width="100%" height="100%" viewBox="0 0 427 363" version="1.1" xmlns="http://www.w3.org/2000/svg" xmlns:xlink="http://www.w3.org/1999/xlink" xml:space="preserve" xmlns:serif="http://www.serif.com/" style="fill-rule:evenodd;clip-rule:evenodd;stroke-linejoin:round;stroke-miterlimit:2;">
    <path id="repeat" d="M214.837,319.738L158.307,319.738L164.558,325.989C168.398,329.964 170.547,335.281 170.547,340.809C170.547,352.512 160.916,362.142 149.213,362.142C143.686,362.142 138.369,359.994 134.393,356.154L91.726,313.487C83.454,305.212 83.454,291.597 91.726,283.322L134.393,240.655C138.369,236.815 143.686,234.667 149.213,234.667C160.916,234.667 170.547,244.297 170.547,256C170.547,261.528 168.398,266.845 164.558,270.821L158.307,277.071L197.513,277.071C200.578,292.533 206.551,306.953 214.837,319.738ZM377.477,145.777C376.341,142.896 375.063,140.065 373.646,137.295C371.865,134.113 370.93,130.526 370.93,126.879C370.93,115.176 380.56,105.546 392.264,105.546C400.632,105.546 408.259,110.469 411.705,118.095C421.589,137.618 426.762,159.189 426.809,181.071C426.903,183.115 426.951,185.161 426.951,187.208C426.951,190.208 426.849,193.186 426.649,196.139C415.514,174.948 398.365,157.402 377.477,145.777ZM42.809,181.071C42.788,196.261 46.386,211.239 53.305,224.762C55.085,227.944 56.02,231.531 56.02,235.178C56.02,246.881 46.39,256.511 34.687,256.511C26.319,256.511 18.692,251.588 15.246,243.962C5.375,224.465 0.202,202.925 0.142,181.071C0.047,179.027 -0,176.981 -0,174.935C-0,102.153 59.89,42.263 132.672,42.263C134.718,42.263 136.764,42.31 138.809,42.405L268.643,42.405L262.393,36.154C258.553,32.178 256.404,26.861 256.404,21.333C256.404,9.63 266.034,0 277.737,0C283.265,0 288.582,2.148 292.558,5.989L335.225,48.655C339.236,52.656 341.492,58.094 341.492,63.759C341.492,69.424 339.236,74.862 335.225,78.863L292.558,121.53C288.582,125.37 283.265,127.518 277.737,127.518C266.034,127.518 256.404,117.888 256.404,106.185C256.404,100.657 258.553,95.34 262.393,91.365L268.643,85.071L138.809,85.071C136.734,84.927 134.656,84.855 132.577,84.855C83.213,84.855 42.593,125.475 42.593,174.839C42.593,176.918 42.665,178.997 42.809,181.071ZM317.915,144.072C378.094,144.072 426.951,192.929 426.951,253.107C426.951,313.285 378.094,362.142 317.915,362.142C257.737,362.142 208.88,313.285 208.88,253.107C208.88,192.929 257.737,144.072 317.915,144.072ZM346.316,310.078C347.223,310.078 348.016,309.738 348.697,309.057C349.377,308.377 349.717,307.584 349.717,306.677L349.717,295.793C349.717,294.886 349.377,294.092 348.697,293.412C348.016,292.731 347.223,292.391 346.316,292.391L329.99,292.391C329.083,292.391 328.318,292.051 327.694,291.371C327.07,290.691 326.759,289.897 326.759,288.99L326.759,199.538C326.759,198.631 326.418,197.837 325.738,197.157C325.058,196.477 324.264,196.136 323.357,196.136L315.024,196.136C314.457,196.136 314.004,196.193 313.664,196.307L297.168,203.619C296.261,204.073 295.666,204.696 295.382,205.49C295.099,206.283 295.127,207.134 295.467,208.041L299.889,218.074C300.909,220.002 302.383,220.569 304.31,219.775C305.444,219.208 306.521,219.265 307.542,219.945C308.562,220.625 309.072,221.589 309.072,222.836L309.072,288.99C309.072,289.897 308.732,290.691 308.052,291.371C307.372,292.051 306.578,292.391 305.671,292.391L289.515,292.391C288.608,292.391 287.814,292.731 287.134,293.412C286.454,294.092 286.114,294.886 286.114,295.793L286.114,306.677C286.114,307.584 286.454,308.377 287.134,309.057C287.814,309.738 288.608,310.078 289.515,310.078L346.316,310.078Z"/>
</svg>
