<svg xmlns="http://www.w3.org/2000/svg" xml:space="preserve" style="fill-rule:evenodd;clip-rule:evenodd;stroke-linejoin:round;stroke-miterlimit:2" viewBox="0 0 24 19"><path d="m21.466 9.375 2.205 2.205a1.126 1.126 0 0 1-1.591 1.591l-2.205-2.205-2.204 2.205a1.125 1.125 0 0 1-1.591-1.591l2.204-2.205L16.08 7.17a1.124 1.124 0 1 1 1.591-1.59l2.204 2.204L22.08 5.58a1.124 1.124 0 1 1 1.591 1.59l-2.205 2.205Zm-16.825-4.5c.129 0 .234.105.234.234v8.532a.234.234 0 0 1-.234.234H2.063A2.062 2.062 0 0 1 0 11.813V6.938c0-1.14.923-2.063 2.063-2.063h2.578ZM13.125 0c.621 0 1.125.504 1.125 1.125v16.5c0 .621-.504 1.125-1.125 1.125H12c-.247 0-.487-.081-.683-.231l-4.85-3.709a.234.234 0 0 1-.092-.186V4.126c0-.073.034-.142.092-.186l4.85-3.709C11.513.081 11.753 0 12 0h1.125Z" style="fill:currentColor"/></svg>