<svg xmlns="http://www.w3.org/2000/svg" xml:space="preserve" style="fill-rule:evenodd;clip-rule:evenodd;stroke-linejoin:round;stroke-miterlimit:2" viewBox="0 0 25 18"><path d="M12.444 9c0 .296-.123.55-.354.735l-9.835 7.868a.921.921 0 0 1-.995.113.921.921 0 0 1-.534-.848V1.132c0-.371.2-.688.534-.848a.921.921 0 0 1 .995.113l9.835 7.868a.914.914 0 0 1 .354.735Zm12.282 0c0 .296-.122.55-.353.735l-9.835 7.868a.923.923 0 0 1-.996.113.922.922 0 0 1-.533-.848V1.132c0-.371.2-.688.533-.848a.923.923 0 0 1 .996.113l9.835 7.868a.913.913 0 0 1 .353.735Z" style="fill:currentColor"/></svg>