<svg xmlns="http://www.w3.org/2000/svg" xml:space="preserve" style="fill-rule:evenodd;clip-rule:evenodd;stroke-linejoin:round;stroke-miterlimit:2" viewBox="0 0 36 36"><path d="M18 0c9.941 0 18 8.059 18 18s-8.059 18-18 18S0 27.941 0 18 8.059 0 18 0Zm-6.945 10.125a.752.752 0 0 0-.75.75v14.25c0 .413.337.75.75.75h3.54c.413 0 .75-.337.75-.75v-14.25a.752.752 0 0 0-.75-.75h-3.54Zm10.35 0a.752.752 0 0 0-.75.75v14.25c0 .413.337.75.75.75h3.54c.413 0 .75-.337.75-.75v-14.25a.752.752 0 0 0-.75-.75h-3.54Z" style="fill:currentColor"/></svg>