<svg xmlns="http://www.w3.org/2000/svg" xml:space="preserve" style="fill-rule:evenodd;clip-rule:evenodd;stroke-linejoin:round;stroke-miterlimit:2" viewBox="0 0 512 512"><path d="M196 329.125c0-11.038 8.962-20 20-20s20 8.962 20 20V452c0 11.046 8.955 20 20 20h196c11.046 0 20-8.954 20-20V256c0-11.045-8.954-20-20-20H329.125c-11.038 0-20-8.962-20-20s8.962-20 20-20H452c33.137 0 60 26.863 60 60v196c0 33.137-26.863 60-60 60H256c-33.137 0-60-26.863-60-60V329.125ZM376 40c-11.038 0-20-8.962-20-20s8.962-20 20-20h56c44.183 0 80 35.817 80 80v56c0 11.038-8.962 20-20 20s-20-8.962-20-20V80c0-22.091-17.909-40-40-40h-56ZM296 0c11.038 0 20 8.962 20 20s-8.962 20-20 20h-80c-11.038 0-20-8.962-20-20s8.962-20 20-20h80ZM136 0c11.038 0 20 8.962 20 20s-8.962 20-20 20H80c-22.091 0-40 17.909-40 40v56c0 11.038-8.962 20-20 20s-20-8.962-20-20V80C0 35.817 35.817 0 80 0h56ZM0 376c0-11.038 8.962-20 20-20s20 8.962 20 20v56c0 22.091 17.909 40 40 40h56c11.038 0 20 8.962 20 20s-8.962 20-20 20H80c-44.183 0-80-35.817-80-80v-56Zm0-160c0-11.038 8.962-20 20-20s20 8.962 20 20v80c0 11.038-8.962 20-20 20s-20-8.962-20-20v-80Zm327.716 140L97.574 125.858c-7.805-7.805-7.805-20.479 0-28.284s20.479-7.805 28.284 0L356 327.716V316c0-11.038 8.962-20 20-20s20 8.962 20 20v60c0 11.046-8.954 20-20 20h-60c-11.038 0-20-8.962-20-20s8.962-20 20-20h11.716Z" style="fill:currentColor;fill-rule:nonzero"/></svg>