<svg xmlns="http://www.w3.org/2000/svg" xml:space="preserve" style="fill-rule:evenodd;clip-rule:evenodd;stroke-linejoin:round;stroke-miterlimit:2" viewBox="0 0 512 512"><path d="M511.414 135.194c0 11.038-8.962 20-20 20s-20-8.962-20-20V88.321c0-26.687-21.635-48.321-48.321-48.321H88.321C61.634 40 40 61.634 40 88.321v334.772c0 26.686 21.634 48.321 48.321 48.321h47.873c11.038 0 20 8.962 20 20s-8.962 20-20 20H88.321C39.543 511.414 0 471.87 0 423.093V88.321C0 39.543 39.543 0 88.321 0h334.772c48.777 0 88.321 39.543 88.321 88.321v46.873Zm-238.17 336.22c11.039 0 20 8.962 20 20s-8.961 20-20 20h-22.745c-30.423 0-55.085-24.663-55.085-55.085v-23.06c0-11.039 8.962-20 20-20s20 8.961 20 20v23.06c0 8.331 6.754 15.085 15.085 15.085h22.745Zm66.78 40c-11.038 0-20-8.962-20-20s8.962-20 20-20h26.78c11.038 0 20 8.962 20 20s-8.962 20-20 20h-26.78Zm93.559 0c-11.038 0-20-8.962-20-20s8.962-20 20-20h22.746c8.331 0 15.085-6.754 15.085-15.085v-22.746c0-11.038 8.962-20 20-20s20 8.962 20 20v22.746c0 30.422-24.663 55.085-55.085 55.085h-22.746Zm77.831-238.17c0 11.039-8.962 20-20 20s-20-8.961-20-20v-22.745c0-8.331-6.754-15.085-15.085-15.085h-22.917c-11.038 0-20-8.962-20-20s8.962-20 20-20h22.917c30.422 0 55.085 24.662 55.085 55.085v22.745Zm0 93.56c0 11.038-8.962 20-20 20s-20-8.962-20-20v-26.78c0-11.038 8.962-20 20-20s20 8.962 20 20v26.78Zm-276-.106c0 11.038-8.962 20-20 20s-20-8.962-20-20v-38.115c0-11.038 8.962-20 20-20s20 8.962 20 20v38.115Zm130.284-171.284c11.038 0 20 8.962 20 20s-8.962 20-20 20h-36.115c-11.038 0-20-8.962-20-20s8.962-20 20-20h36.115Zm-246.284-47.716v11.716c0 11.038-8.962 20-20 20s-20-8.962-20-20v-60c0-11.046 8.954-20 20-20h60c11.038 0 20 8.962 20 20s-8.962 20-20 20h-11.716L377.84 349.556c7.805 7.805 7.805 20.479 0 28.284s-20.479 7.805-28.284 0L119.414 147.698Z" style="fill:currentColor;fill-rule:nonzero"/></svg>