<?xml version="1.0" encoding="UTF-8" standalone="no"?>
<!DOCTYPE svg PUBLIC "-//W3C//DTD SVG 1.1//EN" "http://www.w3.org/Graphics/SVG/1.1/DTD/svg11.dtd">
<svg width="100%" height="100%" viewBox="0 0 411 278" version="1.1" xmlns="http://www.w3.org/2000/svg" xmlns:xlink="http://www.w3.org/1999/xlink" xml:space="preserve" xmlns:serif="http://www.serif.com/" style="fill-rule:evenodd;clip-rule:evenodd;stroke-linejoin:round;stroke-miterlimit:2;">
    <path id="music-list" d="M0,32.205C0,23.427 7.223,16.205 16,16.205L208,16.205C216.777,16.205 224,23.427 224,32.205C224,40.982 216.777,48.205 208,48.205L16,48.205C7.223,48.205 0,40.982 0,32.205ZM181.333,138.871C181.333,130.094 174.111,122.871 165.333,122.871L16,122.871C7.223,122.871 0,130.094 0,138.871C0,147.649 7.223,154.871 16,154.871L165.333,154.871C174.111,154.871 181.333,147.649 181.333,138.871ZM101.333,229.538L16,229.538C7.223,229.538 0,236.761 0,245.538C0,254.315 7.223,261.538 16,261.538L101.333,261.538C110.111,261.538 117.333,254.315 117.333,245.538C117.333,236.761 110.111,229.538 101.333,229.538ZM399.467,5.538C390.766,-0.273 379.796,-1.598 369.963,1.975L304,20.535C287.281,25.423 275.671,40.813 275.563,58.231L275.563,171.405C264.703,162.226 250.934,157.187 236.715,157.187C203.701,157.187 176.534,184.354 176.534,217.368C176.534,250.383 203.701,277.55 236.715,277.55C269.73,277.55 296.897,250.383 296.897,217.368C296.897,217.279 296.896,217.19 296.896,217.101L296.896,138.871C296.472,130.13 301.701,122.041 309.845,118.839L387.2,97.25C400.766,94.274 410.553,82.21 410.667,68.322L410.667,32.781C411.568,22.442 407.386,12.287 399.467,5.581L399.467,5.538Z" style="fill-rule:nonzero;"/>
</svg>
