<svg xmlns="http://www.w3.org/2000/svg" xml:space="preserve" style="fill-rule:evenodd;clip-rule:evenodd;stroke-linejoin:round;stroke-miterlimit:2" viewBox="0 0 25 18"><path d="M12.556 9c0 .296.123.55.354.735l9.835 7.868a.921.921 0 0 0 .995.113.921.921 0 0 0 .534-.848V1.132c0-.371-.2-.688-.534-.848a.921.921 0 0 0-.995.113L12.91 8.265a.914.914 0 0 0-.354.735ZM.274 9c0 .296.122.55.353.735l9.835 7.868a.923.923 0 0 0 .996.113.922.922 0 0 0 .533-.848V1.132c0-.371-.2-.688-.533-.848a.923.923 0 0 0-.996.113L.627 8.265A.913.913 0 0 0 .274 9Z" style="fill:currentColor"/></svg>