<?xml version="1.0" encoding="UTF-8" standalone="no"?>
<!DOCTYPE svg PUBLIC "-//W3C//DTD SVG 1.1//EN" "http://www.w3.org/Graphics/SVG/1.1/DTD/svg11.dtd">
<svg width="100%" height="100%" viewBox="0 0 427 363" version="1.1" xmlns="http://www.w3.org/2000/svg" xmlns:xlink="http://www.w3.org/1999/xlink" xml:space="preserve" xmlns:serif="http://www.serif.com/" style="fill-rule:evenodd;clip-rule:evenodd;stroke-linejoin:round;stroke-miterlimit:2;">
    <path id="repeat" d="M42.809,181.071C42.788,196.261 46.386,211.239 53.305,224.762C55.085,227.944 56.02,231.531 56.02,235.178C56.02,246.881 46.39,256.511 34.687,256.511C26.319,256.511 18.692,251.588 15.246,243.962C5.375,224.465 0.202,202.925 0.142,181.071C0.047,179.027 0,176.981 0,174.935C-0,102.153 59.89,42.263 132.672,42.263C134.718,42.263 136.764,42.31 138.809,42.405L268.643,42.405L262.393,36.154C258.553,32.178 256.404,26.861 256.404,21.333C256.404,9.63 266.034,0 277.737,0C283.265,0 288.582,2.148 292.558,5.989L335.225,48.655C339.236,52.656 341.492,58.094 341.492,63.759C341.492,69.424 339.236,74.862 335.225,78.863L292.558,121.53C288.582,125.37 283.265,127.518 277.737,127.518C266.034,127.518 256.404,117.888 256.404,106.185C256.404,100.657 258.553,95.34 262.393,91.365L268.643,85.071L138.809,85.071C136.734,84.927 134.656,84.855 132.577,84.855C83.213,84.855 42.593,125.475 42.593,174.839C42.593,176.918 42.665,178.997 42.809,181.071ZM411.705,118.095C408.259,110.469 400.632,105.546 392.264,105.546C380.56,105.546 370.93,115.176 370.93,126.879C370.93,130.526 371.865,134.113 373.646,137.295C380.578,150.843 384.176,165.853 384.142,181.071C384.286,183.145 384.358,185.224 384.358,187.303C384.358,236.667 343.738,277.287 294.374,277.287C292.295,277.287 290.216,277.215 288.142,277.071L158.307,277.071L164.558,270.821C168.398,266.845 170.547,261.528 170.547,256C170.547,244.297 160.916,234.667 149.213,234.667C143.686,234.667 138.369,236.815 134.393,240.655L91.726,283.322C83.454,291.597 83.454,305.212 91.726,313.487L134.393,356.154C138.369,359.994 143.686,362.142 149.213,362.142C160.916,362.142 170.547,352.512 170.547,340.809C170.547,335.281 168.398,329.964 164.558,325.989L158.307,319.738L288.142,319.738C290.186,319.833 292.232,319.88 294.279,319.88C367.06,319.88 426.951,259.99 426.951,187.208C426.951,185.161 426.903,183.115 426.809,181.071C426.762,159.189 421.589,137.618 411.705,118.095Z" style="fill-rule:nonzero;"/>
</svg>
