<?xml version="1.0" encoding="UTF-8" standalone="no"?>
<!DOCTYPE svg PUBLIC "-//W3C//DTD SVG 1.1//EN" "http://www.w3.org/Graphics/SVG/1.1/DTD/svg11.dtd">
<svg width="100%" height="100%" viewBox="0 0 427 341" version="1.1" xmlns="http://www.w3.org/2000/svg" xmlns:xlink="http://www.w3.org/1999/xlink" xml:space="preserve" xmlns:serif="http://www.serif.com/" style="fill-rule:evenodd;clip-rule:evenodd;stroke-linejoin:round;stroke-miterlimit:2;">
    <path id="shuffle" d="M425.024,285.263C423.954,287.864 422.381,290.227 420.395,292.218L377.728,334.885C373.752,338.725 368.435,340.873 362.907,340.873C351.204,340.873 341.574,331.243 341.574,319.54C341.574,314.012 343.723,308.695 347.563,304.719L353.835,298.447L329.408,298.447C303.498,298.507 278.934,286.709 262.784,266.447L130.539,101.114C122.479,90.982 110.205,85.081 97.259,85.114L21.333,85.114C9.63,85.114 0,75.484 0,63.781C0,52.077 9.63,42.447 21.333,42.447L97.259,42.447C123.169,42.388 147.733,54.186 163.883,74.447L296.149,239.759C304.209,249.891 316.483,255.792 329.429,255.759L353.856,255.759L347.605,249.509C343.765,245.533 341.617,240.216 341.617,234.688C341.617,222.985 351.247,213.355 362.95,213.355C368.478,213.355 373.795,215.503 377.771,219.343L420.437,262.01C426.53,268.099 428.363,277.305 425.067,285.263L425.024,285.263ZM256,138.447C262.476,138.45 268.614,135.503 272.661,130.447L296.128,101.114C304.188,90.982 316.461,85.081 329.408,85.114L353.835,85.114L347.584,91.365C343.424,95.383 341.071,100.925 341.071,106.709C341.071,118.412 350.701,128.043 362.405,128.043C368.189,128.043 373.731,125.69 377.749,121.53L420.416,78.863C424.427,74.862 426.683,69.424 426.683,63.759C426.683,58.094 424.427,52.656 420.416,48.655L377.749,5.989C373.773,2.148 368.456,0 362.929,0C351.226,0 341.595,9.63 341.595,21.333C341.595,26.861 343.744,32.178 347.584,36.154L353.835,42.447L329.408,42.447C303.502,42.382 278.943,54.182 262.805,74.447L239.339,103.759C236.299,107.546 234.642,112.258 234.642,117.114C234.642,128.817 244.272,138.447 255.975,138.447C255.983,138.447 255.992,138.447 256,138.447ZM154.027,210.447L130.56,239.781C122.5,249.913 110.227,255.813 97.28,255.781L21.333,255.781C9.63,255.781 0,265.411 0,277.114C0,288.817 9.63,298.447 21.333,298.447L97.259,298.447C123.164,298.513 147.724,286.713 163.861,266.447L187.328,237.135C190.625,233.274 192.438,228.359 192.438,223.282C192.438,211.579 182.808,201.949 171.105,201.949C164.401,201.949 158.075,205.109 154.048,210.469L154.027,210.447Z" style="fill-rule:nonzero;"/>
</svg>
