<svg xmlns="http://www.w3.org/2000/svg" xml:space="preserve" style="fill-rule:evenodd;clip-rule:evenodd;stroke-linejoin:round;stroke-miterlimit:2" viewBox="0 0 24 19"><path d="M16.778 14.575a1.124 1.124 0 0 1-.825-1.889 4.86 4.86 0 0 0 1.297-3.311 4.86 4.86 0 0 0-1.297-3.311 1.125 1.125 0 0 1 1.651-1.529 7.104 7.104 0 0 1 1.896 4.84c0 1.8-.673 3.519-1.896 4.84-.222.239-.523.36-.826.36Zm3.012 3.359a1.125 1.125 0 0 1-.794-1.922 9.31 9.31 0 0 0 2.754-6.637 9.31 9.31 0 0 0-2.754-6.637 1.125 1.125 0 0 1 1.588-1.593A11.543 11.543 0 0 1 24 9.375c0 3.111-1.213 6.034-3.416 8.231a1.118 1.118 0 0 1-.794.328ZM4.641 4.875c.129 0 .234.105.234.234v8.532a.234.234 0 0 1-.234.234H2.063A2.062 2.062 0 0 1 0 11.813V6.938c0-1.14.923-2.063 2.063-2.063h2.578ZM13.125 0c.621 0 1.125.504 1.125 1.125v16.5c0 .621-.504 1.125-1.125 1.125H12c-.247 0-.487-.081-.683-.231l-4.85-3.709a.234.234 0 0 1-.092-.186V4.126c0-.073.034-.142.092-.186l4.85-3.709C11.513.081 11.753 0 12 0h1.125Z" style="fill:currentColor"/></svg>